M48
INCH,LZ
;FILE_FORMAT=2:4
;TYPE=PLATED
;Layer: PTH_Through
;EasyEDA v6.5.47, 2024-12-02 16:04:41
;21ecff18f707448a99b4ba636b948567,dcd0ed1caef0489ea57f60499794c5f0,10
;Gerber Generator version 0.2
;Holesize 1 = 0.0320 inch
T01C0.0320
;Holesize 2 = 0.0350 inch
T02C0.0350
;Holesize 3 = 0.0350 inch
T03C0.0350
;Holesize 4 = 0.0360 inch
T04C0.0360
;Holesize 5 = 0.0380 inch
T05C0.0380
;Holesize 6 = 0.0390 inch
T06C0.0390
;Holesize 7 = 0.0550 inch
T07C0.0550
%
G05
G90
T01
X022887Y007500
X022650Y012950
T02
X029850Y027800
X028850Y027800
X024600Y027700
X025600Y027700
X024400Y009500
X024400Y008500
T03
X021700Y011550
X020700Y005550
X018700Y005550
X016700Y005550
X014700Y005550
X012700Y005550
X010700Y005550
X008700Y005550
X007700Y011550
X009700Y011550
X011700Y011550
X013700Y011550
X015700Y011550
X017700Y011550
X019700Y011550
X020700Y011550
X018700Y011550
X016700Y011550
X014700Y011550
X012700Y011550
X010700Y011550
X008700Y011550
X007700Y005550
X009700Y005550
X011700Y005550
X013700Y005550
X015700Y005550
X017700Y005550
X019700Y005550
X021700Y005550
T04
X006250Y019650
X006250Y021650
X003800Y019146
X003800Y020146
X003800Y021146
X003800Y022146
X014500Y002350
X015500Y002350
X016500Y002350
X017500Y002350
X024400Y007500
T05
X029578Y017892
X023396Y017892
X027983Y025963
X020759Y017892
X017806Y017892
X024204Y025963
T06
X008187Y025264
X011113Y022536
X015650Y027650
X014650Y027650
X013650Y027650
X012650Y027650
X011650Y027650
X010650Y027650
X014650Y019150
X013650Y019150
X012650Y019150
X011650Y019150
X010650Y019150
X009650Y019150
T07
X021300Y015000
X023280Y015000
M30
