G04 Layer: TopLayer*
G04 EasyEDA v6.5.47, 2024-12-02 16:04:41*
G04 21ecff18f707448a99b4ba636b948567,dcd0ed1caef0489ea57f60499794c5f0,10*
G04 Gerber Generator version 0.2*
G04 Scale: 100 percent, Rotated: No, Reflected: No *
G04 Dimensions in inches *
G04 leading zeros omitted , absolute positions ,3 integer and 6 decimal *
%FSLAX36Y36*%
%MOIN*%

%ADD10C,0.0100*%
%ADD11C,0.0709*%
%ADD12R,0.0620X0.0620*%
%ADD13C,0.0620*%
%ADD14C,0.0600*%
%ADD15C,0.0866*%
%ADD16C,0.0787*%
%ADD17R,0.0630X0.0630*%
%ADD18C,0.0630*%
%ADD19O,0.06299199999999999X0.10236200000000001*%
%ADD20C,0.0900*%
%ADD21C,0.0394*%

%LPD*%
D10*
X965000Y1915000D02*
G01*
X1065000Y1915000D01*
D11*
X2265000Y1295000D02*
G01*
X2288744Y1295000D01*
X2288744Y750000D01*
D12*
G01*
X2985000Y2780000D03*
D13*
G01*
X2885000Y2780000D03*
D12*
G01*
X2460000Y2770000D03*
D13*
G01*
X2560000Y2770000D03*
D14*
G01*
X625000Y1965000D03*
G01*
X625000Y2165000D03*
D15*
G01*
X818729Y2526399D03*
G01*
X1111270Y2253600D03*
D16*
G01*
X1565000Y2765000D03*
G01*
X1465000Y2765000D03*
G01*
X1365000Y2765000D03*
G01*
X1265000Y2765000D03*
G01*
X1165000Y2765000D03*
G01*
X1065000Y2765000D03*
G01*
X1465000Y1915000D03*
G01*
X1365000Y1915000D03*
G01*
X1265000Y1915000D03*
G01*
X1165000Y1915000D03*
G01*
X1065000Y1915000D03*
G01*
X965000Y1915000D03*
D17*
G01*
X2170000Y1155000D03*
D18*
G01*
X2070000Y555000D03*
G01*
X1870000Y555000D03*
G01*
X1670000Y555000D03*
G01*
X1470000Y555000D03*
G01*
X1270000Y555000D03*
G01*
X1070000Y555000D03*
G01*
X870000Y555000D03*
G01*
X770000Y1155000D03*
G01*
X970000Y1155000D03*
G01*
X1170000Y1155000D03*
G01*
X1370000Y1155000D03*
G01*
X1570000Y1155000D03*
G01*
X1770000Y1155000D03*
G01*
X1970000Y1155000D03*
G01*
X2070000Y1155000D03*
G01*
X1870000Y1155000D03*
G01*
X1670000Y1155000D03*
G01*
X1470000Y1155000D03*
G01*
X1270000Y1155000D03*
G01*
X1070000Y1155000D03*
G01*
X870000Y1155000D03*
G01*
X770000Y555000D03*
G01*
X970000Y555000D03*
G01*
X1170000Y555000D03*
G01*
X1370000Y555000D03*
G01*
X1570000Y555000D03*
G01*
X1770000Y555000D03*
G01*
X1970000Y555000D03*
D17*
G01*
X2170000Y555000D03*
D14*
G01*
X379960Y1914609D03*
G01*
X379960Y2014609D03*
G01*
X379960Y2114609D03*
G01*
X379960Y2214609D03*
D19*
G01*
X1450000Y235000D03*
G01*
X1550000Y235000D03*
G01*
X1650000Y235000D03*
G01*
X1750000Y235000D03*
D20*
G01*
X2130000Y1500000D03*
G01*
X2328000Y1500000D03*
D16*
G01*
X2957759Y1789209D03*
G01*
X2339650Y1789209D03*
G01*
X2798310Y2596300D03*
G01*
X2075870Y1789209D03*
G01*
X1780590Y1789209D03*
G01*
X2420349Y2596300D03*
D12*
G01*
X2440000Y950000D03*
D13*
G01*
X2440000Y850000D03*
G01*
X2440000Y750000D03*
D21*
G01*
X2288743Y750000D03*
G01*
X2265000Y1295000D03*
M02*
